<?xml version="1.0" encoding="utf-8"?>
<!-- Generator: Adobe Illustrator 16.0.0, SVG Export Plug-In . SVG Version: 6.00 Build 0)  -->
<!DOCTYPE svg PUBLIC "-//W3C//DTD SVG 1.1//EN" "http://www.w3.org/Graphics/SVG/1.1/DTD/svg11.dtd">
<svg version="1.1" id="Capa_1" xmlns="http://www.w3.org/2000/svg" xmlns:xlink="http://www.w3.org/1999/xlink" x="0px" y="0px"
	 width="24.937px" height="23.242px" viewBox="0 0 24.937 23.242" enable-background="new 0 0 24.937 23.242" xml:space="preserve">
<g id="quadrifoglio">
	<path fill-rule="evenodd" clip-rule="evenodd" d="M12.615,11.362c0.978-2.111,1.767-3.923,2.648-5.686
		c0.988-1.972,2.342-2.679,4.047-2.243c1.695,0.43,2.434,1.623,2.416,3.902c0,0.275,0,0.553,0,0.688
		c0.793,1.723,3.922,1.511,3.062,4.459c-0.146,0.096-0.479,0.242-0.73,0.479c-2.852,2.648-5.65,1.482-8.463-0.074
		C14.703,12.39,13.777,11.954,12.615,11.362z"/>
	<path fill-rule="evenodd" clip-rule="evenodd" d="M0,12.33c0.516-0.822,0.908-1.571,1.411-2.232C2.535,8.62,3.66,8.185,5.349,8.837
		c2.171,0.842,4.266,1.876,6.624,2.928c-1.076,2.317-1.996,4.456-3.059,6.522c-0.671,1.305-1.9,1.795-3.344,1.564
		c-1.428-0.227-2.724-1.041-2.658-2.477C3.018,14.988,1.63,13.66,0,12.33z"/>
	<path fill-rule="evenodd" clip-rule="evenodd" d="M12.605,12.416c2.316,1.094,4.458,2.006,6.503,3.106
		c1.4,0.754,1.877,2.201,1.49,3.605c-0.406,1.467-1.422,2.365-3.086,2.352c-1.09-0.004-1.891,0.182-2.756,0.951
		c-1.253,1.115-2.959,1.018-4.145,0.096c-1.087-0.846-1.556-2.332-0.94-3.822C10.523,16.639,11.553,14.645,12.605,12.416z"/>
	<path fill-rule="evenodd" clip-rule="evenodd" d="M11.945,10.785C9.682,9.798,7.693,9.004,5.77,8.069
		C4.088,7.25,3.424,5.967,3.691,4.487c0.293-1.616,1.486-2.657,3.455-2.6c0.971,0.027,1.504-0.274,2.17-0.876
		c1.367-1.228,2.775-1.295,4.092-0.433c1.384,0.907,1.835,2.356,1.121,4.222C13.797,6.717,12.908,8.574,11.945,10.785z"/>
</g>
</svg>
